<svg width="180" height="69" viewBox="0 0 180 69" fill="none" xmlns="http://www.w3.org/2000/svg">
<g clip-path="url(#clip0_699_3898)">
<path d="M151.166 67.9993C176.679 67.9993 179.514 65.1645 179.514 39.6513V28.312C179.514 2.79879 176.679 -0.0360107 151.166 -0.0360107L139.826 -0.0360107C114.313 -0.0360107 111.478 2.79879 111.478 28.312V39.6513C111.478 65.1645 114.313 67.9993 139.826 67.9993H151.166ZM154 53.8253L136.992 59.4949V14.138L154 8.46841V53.8253ZM26.367 45.2168L29.9932 44.0088V59.4972H26.367V45.2168ZM19.1469 59.4972H22.7731V36.8512H19.1469V59.4972ZM11.9245 44.0065H15.5507V59.4949H11.9245V57.241C10.9433 59.0066 9.08043 59.8883 6.43539 59.8883C2.31855 59.8883 -0.0349121 57.5349 -0.0349121 51.7518C-0.0349121 45.9688 2.31855 43.6154 6.43539 43.6154C9.08275 43.6154 10.9456 44.4971 11.9245 46.2627V44.0088V44.0065ZM11.9245 51.3584C11.9245 48.32 10.8461 47.1421 7.70816 47.1421C4.5702 47.1421 3.59133 48.3177 3.59133 51.3584V52.1429C3.59133 55.1814 4.66971 56.3593 7.70816 56.3593C10.7466 56.3593 11.9245 55.1837 11.9245 52.1429V51.3584ZM90.9404 44.0065H94.4694V59.4949H90.9404V57.241C89.862 59.0066 87.9991 59.8883 85.3517 59.8883C81.2349 59.8883 78.9786 57.5349 78.9786 51.7518C78.9786 45.9688 81.2326 43.6154 85.3517 43.6154C87.9991 43.6154 89.862 44.4971 90.9404 46.2627V44.0088V44.0065ZM90.9404 51.3584C90.8432 48.32 89.7648 47.1421 86.724 47.1421C83.6833 47.1421 82.5077 48.3177 82.5077 51.3584V52.1429C82.5077 55.1814 83.6833 56.3593 86.724 56.3593C89.7648 56.3593 90.8409 55.1837 90.9404 52.1429V51.3584ZM70.0577 43.6154C67.5098 43.6154 65.8413 44.5966 65.0569 46.4594C64.2724 44.5966 62.6062 43.6154 60.056 43.6154C57.9964 43.6154 56.4298 44.3027 55.5458 45.6749V44.0088H52.0167V59.4972H55.5458V50.3796C55.5458 48.0261 56.4275 47.1444 58.7809 47.1444C61.1344 47.1444 61.9189 48.0261 61.9189 50.3796V59.4972H65.5451V50.3796C65.5451 48.0261 66.3296 47.1444 68.6831 47.1444C71.0366 47.1444 71.9182 48.0261 71.9182 50.3796V59.4972H75.4473V49.0073C75.4473 45.5754 73.4872 43.6154 70.0554 43.6154H70.0577ZM26.367 42.2431H29.9932V38.7141H26.367V42.2431ZM42.4131 43.6154C39.9625 43.6154 38.1968 44.4971 37.2179 46.066V44.0065H33.5917V59.4949H37.2179V51.0645C37.2179 48.2205 38.1991 47.1421 41.0408 47.1421C43.8826 47.1421 44.9633 48.2205 44.9633 51.0645V59.4949H48.4923V49.6923C48.4923 45.7698 46.3356 43.6131 42.4131 43.6131V43.6154ZM52.5768 29.7098C49.897 29.7098 48.4275 28.9901 48.4275 25.5605C48.4275 22.131 49.897 21.4113 52.5768 21.4113C55.2565 21.4113 56.726 22.131 56.726 25.5605C56.726 28.9901 55.2565 29.7098 52.5768 29.7098ZM68.0652 16.3133V27.6201H64.3395C61.3334 27.6201 60.5119 26.5857 60.2967 24.341C59.82 19.3471 56.3673 17.8823 52.5745 17.8823C48.49 17.8823 44.7967 19.5808 44.7967 25.5605C44.7967 26.3126 44.8545 26.9976 44.9656 27.6201H22.7384C19.8943 27.6201 18.816 27.1943 18.816 23.6977V8.47072H15.1897V24.9728C15.1897 29.5478 17.2169 31.1492 21.2689 31.1492H46.6225C48.085 32.6973 50.2673 33.2411 52.5745 33.2411C55.4046 33.2411 58.0474 32.4243 59.4034 29.9319C60.3453 30.7696 61.7824 31.1492 64.3395 31.1492H71.6915V16.3133H68.0652ZM68.0652 10.2665V13.8927H71.6915V10.2665H68.0652ZM80.9086 37.6843V36.0505H79.6335C78.7519 36.0505 78.097 35.7566 78.097 35.0369C78.097 34.4491 78.5552 34.2524 79.4368 34.2524H80.1565V32.651H78.9138C77.2477 32.651 76.3984 33.4031 76.3984 34.5463C76.3984 35.1989 76.6275 35.6895 76.9862 36.0505H75.7111V37.6843H80.9063H80.9086ZM87.3118 31.1469V8.46841H83.6856V27.6178H74.112V31.1469H87.3141H87.3118ZM90.8409 8.46841V31.1469H94.4671V8.46841H90.8409ZM13.4264 31.1469V27.6178H10.7142C7.67576 27.6178 5.84529 26.507 5.84529 24.2855C5.84529 22.978 6.82648 22.2583 8.75414 22.2583H11.0081V18.7292H7.64336C4.37581 18.7292 2.21905 20.6893 2.21905 23.5658C2.21905 25.2319 2.64485 26.5394 3.59133 27.6178H-0.0349121L-0.0349121 31.1469H13.4287H13.4264ZM76.528 9.67869L80.1542 8.47072V25.2019H76.528V9.68101V9.67869Z" fill="#FDF8F5"/>
</g>
<defs>
<clipPath id="clip0_699_3898">
<rect width="179.576" height="68.0353" fill="white"/>
</clipPath>
</defs>
</svg>
