<svg width="329" height="52" viewBox="0 0 329 52" fill="none" xmlns="http://www.w3.org/2000/svg">
<path fill-rule="evenodd" clip-rule="evenodd" d="M291.684 17.5204L292.069 17.5205C292.464 17.5205 292.801 17.4794 293.081 17.3971C293.377 17.2984 293.607 17.1339 293.772 16.9036C293.953 16.6568 294.084 16.336 294.167 15.9412C294.249 15.5463 294.29 15.0446 294.29 14.4359V9.9694H297.547V14.8554C297.547 15.7931 297.671 16.5087 297.918 17.0023C298.181 17.4794 298.682 17.7179 299.423 17.7179C300.147 17.7179 300.632 17.4711 300.879 16.9776C301.125 16.4676 301.249 15.7684 301.249 14.8801V8.98233H304.358V14.7814C304.358 15.2914 304.399 15.7273 304.482 16.0892C304.564 16.4347 304.704 16.7144 304.901 16.9282C305.098 17.1421 305.37 17.2984 305.715 17.3971C306.077 17.4794 306.53 17.5205 307.073 17.5205H307.936C307.986 17.027 308.027 16.5087 308.06 15.9658C308.093 15.4065 308.109 14.9377 308.109 14.5593C308.109 13.3254 308.043 12.1492 307.912 11.0305C307.78 9.91182 307.607 8.88363 307.393 7.94591L310.577 7.50173C310.807 8.4888 310.996 9.56635 311.144 10.7344C311.292 11.9024 311.366 13.1033 311.366 14.3372C311.366 14.8307 311.35 15.3489 311.317 15.8918C311.301 16.4347 311.276 16.9776 311.243 17.5205L313.281 17.5204H316.341V2.68972H319.598V20.0868L313.661 20.0869H306.406C305.321 20.0869 304.449 19.9553 303.791 19.692C303.149 19.4124 302.688 18.9353 302.409 18.2608C302.113 18.9517 301.635 19.4699 300.977 19.8154C300.336 20.1444 299.62 20.309 298.831 20.309C297.926 20.309 297.169 20.128 296.56 19.7661C295.952 19.4041 295.54 18.9024 295.326 18.2608C295.096 18.853 294.718 19.3054 294.191 19.618C293.681 19.9306 292.966 20.0869 292.044 20.0869H291.279L272.648 20.0869H269.973H269.711H267.298H267.037H264.623H264.362H261.948H261.686H259.274H259.012H256.337L250.988 20.0868V2.68972H254.245V17.5204H256.713L259.012 17.5205H259.274H261.686H261.948H264.362H264.623H267.037H267.298H269.711H269.973L272.387 17.5204H274.484C274.649 17.5204 274.797 17.5287 274.928 17.5451C275.077 17.5616 275.2 17.578 275.299 17.5945C275.414 17.6109 275.513 17.6274 275.595 17.6438C275.463 17.5287 275.356 17.3806 275.274 17.1996C275.192 17.0516 275.118 16.8788 275.052 16.6814C274.986 16.484 274.953 16.2537 274.953 15.9905C274.953 15.3982 275.052 14.8553 275.249 14.3618C275.463 13.8518 275.767 13.4076 276.162 13.0293C276.574 12.6509 277.067 12.3548 277.643 12.1409C278.219 11.927 278.877 11.8201 279.617 11.8201C280.423 11.8201 281.114 11.9517 281.69 12.2149C282.266 12.4617 282.735 12.8154 283.096 13.276C283.458 13.7367 283.722 14.2796 283.886 14.9047C284.051 15.5134 284.133 16.1714 284.133 16.8788V17.5204H286.724V17.2243C286.724 14.6744 286.173 12.7743 285.071 11.524C283.968 10.2572 282.192 9.62388 279.74 9.62388C278.901 9.62388 278.005 9.71436 277.051 9.89532C276.113 10.0598 275.249 10.2737 274.46 10.5369L274.164 8.24198C275.052 7.96231 276.022 7.732 277.075 7.55103C278.128 7.37007 279.148 7.27959 280.135 7.27959C281.682 7.27959 283.055 7.477 284.256 7.87183C285.457 8.25021 286.469 8.85067 287.292 9.67323C288.114 10.4793 288.739 11.5322 289.167 12.8319C289.611 14.115 289.833 15.6532 289.833 17.4464V17.5204H291.684ZM304.728 6.61337C304.251 6.61337 303.856 6.45708 303.544 6.14451C303.231 5.81548 303.075 5.41243 303.075 4.93535C303.075 4.47471 303.231 4.07989 303.544 3.75086C303.856 3.42184 304.251 3.25733 304.728 3.25733C305.189 3.25733 305.576 3.42184 305.888 3.75086C306.201 4.06344 306.357 4.45826 306.357 4.93535C306.357 5.39598 306.201 5.79081 305.888 6.11983C305.576 6.44885 305.189 6.61337 304.728 6.61337ZM300.632 6.61337C300.171 6.61337 299.785 6.45708 299.472 6.14451C299.16 5.81548 299.003 5.41243 299.003 4.93535C299.003 4.47471 299.16 4.07989 299.472 3.75086C299.785 3.42184 300.171 3.25733 300.632 3.25733C301.093 3.25733 301.479 3.42184 301.792 3.75086C302.104 4.06344 302.261 4.45826 302.261 4.93535C302.261 5.39598 302.104 5.79081 301.792 6.11983C301.479 6.44885 301.093 6.61337 300.632 6.61337ZM302.655 3.10927C302.228 3.10927 301.866 2.96121 301.57 2.66509C301.29 2.35252 301.15 1.98236 301.15 1.55463C301.15 1.1269 301.29 0.764979 301.57 0.468858C301.866 0.156286 302.228 0 302.655 0C303.083 0 303.445 0.156286 303.741 0.468858C304.037 0.764979 304.185 1.1269 304.185 1.55463C304.185 1.98236 304.037 2.35252 303.741 2.66509C303.445 2.96121 303.083 3.10927 302.655 3.10927ZM327.046 2.68972H323.789V20.0868H327.046V2.68972ZM280.974 14.7073C281.32 15.2502 281.492 15.9658 281.492 16.8542V17.6191H279.938C279.296 17.6191 278.745 17.4546 278.285 17.1256C277.84 16.7801 277.618 16.2866 277.618 15.645C277.618 15.1515 277.766 14.732 278.062 14.3865C278.375 14.041 278.819 13.8683 279.395 13.8683C280.119 13.8683 280.645 14.1479 280.974 14.7073ZM244.485 17.5204H237.156V20.0868H247.669V18.4581C247.669 16.9282 247.488 15.5874 247.126 14.4358C246.78 13.2678 246.262 12.2643 245.571 11.4253C244.88 10.5698 244.017 9.85419 242.98 9.27839C241.96 8.7026 240.784 8.24197 239.451 7.8965L238.662 10.6109C240.603 11.1045 242.034 11.9188 242.955 13.0539C243.893 14.1891 244.403 15.6779 244.485 17.5204ZM230.673 2.68972H233.93V20.0868H230.673V2.68972ZM215.536 19.5933C216.687 19.9223 218.102 20.0869 219.78 20.0869H226.739V8.48878H223.482V17.5205H220.126C218.974 17.5205 218.003 17.4218 217.214 17.2243C216.441 17.0105 215.815 16.6979 215.338 16.2866C214.861 15.8589 214.516 15.3242 214.302 14.6826C214.104 14.041 214.006 13.2843 214.006 12.4124C214.006 11.7543 214.08 11.0552 214.228 10.3149C214.376 9.57456 214.582 8.91651 214.845 8.34072L211.365 8.90829C211.184 9.41827 211.028 10.027 210.896 10.7344C210.781 11.4253 210.724 12.108 210.724 12.7825C210.724 13.9177 210.88 14.9376 211.193 15.8425C211.505 16.7308 212.015 17.4958 212.723 18.1374C213.446 18.7625 214.384 19.2478 215.536 19.5933ZM220.298 6.14449C220.611 6.45707 220.998 6.61335 221.458 6.61335C221.919 6.61335 222.305 6.44884 222.618 6.11982C222.931 5.79079 223.087 5.39596 223.087 4.93533C223.087 4.45825 222.931 4.06342 222.618 3.75085C222.305 3.42182 221.919 3.25731 221.458 3.25731C220.998 3.25731 220.611 3.42182 220.298 3.75085C219.986 4.07987 219.829 4.4747 219.829 4.93533C219.829 5.41242 219.986 5.81547 220.298 6.14449ZM216.202 6.14449C216.515 6.45707 216.901 6.61335 217.362 6.61335C217.839 6.61335 218.234 6.44884 218.546 6.11982C218.859 5.79079 219.015 5.39596 219.015 4.93533C219.015 4.45825 218.859 4.06342 218.546 3.75085C218.234 3.42182 217.839 3.25731 217.362 3.25731C216.901 3.25731 216.515 3.42182 216.202 3.75085C215.889 4.07987 215.733 4.4747 215.733 4.93533C215.733 5.41242 215.889 5.81547 216.202 6.14449ZM198.116 2.68972H201.373V20.0868H198.116V2.68972ZM190.668 17.5204H187.608L185.319 17.5205H183.221V14.0411C183.221 13.1362 183.106 12.3219 182.876 11.5981C182.662 10.8742 182.325 10.2573 181.864 9.7473C181.403 9.23732 180.811 8.85071 180.087 8.58749C179.363 8.30783 178.508 8.16799 177.521 8.16799C176.484 8.16799 175.571 8.34073 174.782 8.6862C174.009 9.01523 173.351 9.46763 172.808 10.0434C172.281 10.6192 171.886 11.2937 171.623 12.0669C171.36 12.8401 171.228 13.6709 171.228 14.5593C171.228 15.6779 171.064 16.4512 170.735 16.8789C170.422 17.3066 169.97 17.5205 169.378 17.5205H169.246H168.884H166.975C167.008 16.9611 167.033 16.4018 167.05 15.8425C167.066 15.2667 167.074 14.6991 167.074 14.1398C167.074 12.2808 166.663 10.8249 165.84 9.77198C165.034 8.70265 163.776 8.16799 162.065 8.16799C161.407 8.16799 160.757 8.27492 160.115 8.48879C159.49 8.6862 158.898 8.98232 158.339 9.37715C157.796 9.77198 157.294 10.2573 156.833 10.8331C156.389 11.3924 156.019 12.034 155.723 12.7579H155.698C155.797 12.1656 155.863 11.5487 155.896 10.9071C155.945 10.2491 155.97 9.64859 155.97 9.10571V8.48879H152.712V17.5205H149.702L147.391 17.5204H144.948V8.4887H141.691V20.3582C141.691 21.0327 141.625 21.5838 141.493 22.0116C141.378 22.4557 141.205 22.8094 140.975 23.0727C140.761 23.3523 140.49 23.5415 140.161 23.6402C139.832 23.7554 139.461 23.813 139.05 23.813C138.655 23.813 138.293 23.7801 137.964 23.7143C137.635 23.6649 137.331 23.5991 137.051 23.5168L136.78 26.1079C137.092 26.1901 137.421 26.2477 137.767 26.2806C138.112 26.33 138.474 26.3547 138.853 26.3547C140.103 26.3547 141.123 26.1819 141.913 25.8364C142.719 25.491 143.344 25.0303 143.788 24.4546C144.232 23.8788 144.537 23.2207 144.701 22.4804C144.866 21.7401 144.948 20.9751 144.948 20.1855V20.0868L147.026 20.0869H149.963L168.884 20.0869H169.246H169.254C169.995 20.0869 170.644 19.9306 171.204 19.618C171.763 19.3054 172.199 18.8283 172.512 18.1867C172.89 18.7954 173.466 19.2643 174.239 19.5933C175.012 19.9223 176.131 20.0869 177.595 20.0869L184.934 20.0869H187.87L193.926 20.0868V2.68972H190.668V17.5204ZM179.347 11.5981C179.808 12.1738 180.038 13.1116 180.038 14.4112V17.5205H177.916C176.633 17.5205 175.728 17.249 175.201 16.7061C174.691 16.1633 174.436 15.3489 174.436 14.2631C174.436 13.2103 174.683 12.363 175.177 11.7214C175.687 11.0634 176.394 10.7344 177.299 10.7344C178.204 10.7344 178.886 11.0223 179.347 11.5981ZM163.743 14.5099C163.743 13.3583 163.57 12.4535 163.225 11.7955C162.879 11.121 162.27 10.7837 161.399 10.7837C160.74 10.7837 160.115 10.9729 159.523 11.3513C158.931 11.7297 158.396 12.2314 157.919 12.8566C157.442 13.4817 157.031 14.2056 156.685 15.0281C156.34 15.8342 156.093 16.665 155.945 17.5205H163.619C163.652 17.0269 163.677 16.517 163.693 15.9905C163.726 15.4476 163.743 14.9541 163.743 14.5099ZM130.956 5.82365C131.285 6.15267 131.688 6.31718 132.165 6.31718C132.642 6.31718 133.045 6.15267 133.374 5.82365C133.703 5.49463 133.868 5.09157 133.868 4.61449C133.868 4.13741 133.703 3.73435 133.374 3.40533C133.045 3.07631 132.642 2.91179 132.165 2.91179C131.688 2.91179 131.285 3.07631 130.956 3.40533C130.627 3.73435 130.462 4.13741 130.462 4.61449C130.462 5.09157 130.627 5.49463 130.956 5.82365ZM126.07 17.5204L125.05 17.5204H122.607V8.4887H119.35V17.5204H114.711V17.5205H112.297H112.036H109.622H109.36L107.063 17.5205H104.645V9.03167C104.201 8.88361 103.707 8.74378 103.164 8.61217C102.687 8.49701 102.136 8.3983 101.511 8.31604C100.902 8.21734 100.228 8.16798 99.4873 8.16798C98.3522 8.16798 97.3734 8.34072 96.5508 8.6862C95.7283 9.03167 95.0455 9.4923 94.5026 10.0681C93.9762 10.6274 93.5814 11.2855 93.3182 12.0422C93.0714 12.7825 92.948 13.5557 92.948 14.3618C92.948 15.2338 93.0632 16.0234 93.2935 16.7308C93.5403 17.4382 93.9269 18.0387 94.4533 18.5322C94.9797 19.0258 95.6625 19.4124 96.5015 19.692C97.3405 19.9552 98.3604 20.0869 99.5614 20.0869L106.686 20.0869H109.36H109.622H112.036H112.297H114.972V20.0868L124.663 20.0868H138.063V13.8436C138.063 12.1162 137.61 10.7425 136.706 9.72257C135.817 8.68615 134.411 8.16794 132.486 8.16794C131.417 8.16794 130.479 8.33245 129.673 8.66147C128.867 8.9905 128.192 9.43468 127.649 9.99402C127.123 10.5534 126.728 11.195 126.465 11.9188C126.202 12.6262 126.07 13.3747 126.07 14.1644C126.07 15.0527 126.185 15.7848 126.415 16.3606C126.646 16.92 126.991 17.3641 127.452 17.6932L127.082 17.6191C126.95 17.5862 126.802 17.5616 126.637 17.5451C126.473 17.5287 126.284 17.5204 126.07 17.5204ZM134.189 11.5733C134.649 12.1162 134.88 13.0046 134.88 14.2384V17.5204H133.004C131.721 17.5204 130.783 17.2408 130.191 16.6814C129.599 16.1056 129.303 15.2337 129.303 14.0657C129.303 13.0951 129.558 12.2972 130.068 11.672C130.578 11.0469 131.301 10.7343 132.239 10.7343C133.078 10.7343 133.728 11.014 134.189 11.5733ZM118.461 23.7883C118.461 24.2489 118.305 24.6437 117.993 24.9728C117.68 25.3018 117.285 25.4663 116.808 25.4663C116.348 25.4663 115.961 25.3018 115.648 24.9728C115.336 24.6602 115.179 24.2654 115.179 23.7883C115.179 23.3276 115.336 22.9328 115.648 22.6038C115.961 22.2748 116.348 22.1103 116.808 22.1103C117.285 22.1103 117.68 22.2665 117.993 22.5791C118.305 22.9081 118.461 23.3112 118.461 23.7883ZM122.533 23.7883C122.533 24.2489 122.377 24.6437 122.064 24.9728C121.752 25.3018 121.365 25.4663 120.904 25.4663C120.444 25.4663 120.057 25.3018 119.745 24.9728C119.432 24.6602 119.276 24.2654 119.276 23.7883C119.276 23.3276 119.432 22.9328 119.745 22.6038C120.057 22.2748 120.444 22.1103 120.904 22.1103C121.365 22.1103 121.752 22.2665 122.064 22.5791C122.377 22.9081 122.533 23.3112 122.533 23.7883ZM101.486 11.1785C101.305 11.0963 101.091 11.0223 100.845 10.9565C100.631 10.9071 100.376 10.8577 100.08 10.8084C99.7999 10.759 99.4874 10.7344 99.1419 10.7344C98.2042 10.7344 97.4803 11.0469 96.9703 11.6721C96.4603 12.2972 96.2053 13.0951 96.2053 14.0657C96.2053 15.2009 96.4932 16.0645 97.069 16.6568C97.6613 17.2326 98.6072 17.5205 99.9068 17.5205H101.486V11.1785ZM101.215 6.61335C100.754 6.61335 100.367 6.45707 100.055 6.14449C99.7423 5.81547 99.5861 5.41242 99.5861 4.93533C99.5861 4.4747 99.7423 4.07987 100.055 3.75085C100.367 3.42182 100.754 3.25731 101.215 3.25731C101.675 3.25731 102.062 3.42182 102.375 3.75085C102.687 4.06342 102.843 4.45825 102.843 4.93533C102.843 5.39596 102.687 5.79079 102.375 6.11982C102.062 6.44884 101.675 6.61335 101.215 6.61335ZM97.1184 6.61335C96.6577 6.61335 96.2711 6.45707 95.9586 6.14449C95.646 5.81547 95.4897 5.41242 95.4897 4.93533C95.4897 4.4747 95.646 4.07987 95.9586 3.75085C96.2711 3.42182 96.6577 3.25731 97.1184 3.25731C97.5955 3.25731 97.9903 3.42182 98.3029 3.75085C98.6154 4.06342 98.7717 4.45825 98.7717 4.93533C98.7717 5.39596 98.6154 5.79079 98.3029 6.11982C97.9903 6.44884 97.5955 6.61335 97.1184 6.61335ZM83.8936 2.68972H80.6362V20.0868H83.8936V2.68972ZM70.4925 17.5204L73.1886 17.5204V2.68972H76.446V20.0868H70.1287L68.0495 20.0868V20.1855C68.0495 20.9751 67.9673 21.7401 67.8027 22.4804C67.6382 23.2207 67.3339 23.8788 66.8897 24.4546C66.4455 25.0303 65.8204 25.491 65.0143 25.8364C64.2246 26.1819 63.2047 26.3547 61.9544 26.3547C61.576 26.3547 61.2141 26.33 60.8686 26.2806C60.5231 26.2477 60.1941 26.1901 59.8815 26.1079L60.153 23.5168C60.4326 23.5991 60.737 23.6649 61.066 23.7143C61.395 23.7801 61.757 23.813 62.1518 23.813C62.5631 23.813 62.9332 23.7554 63.2622 23.6402C63.5913 23.5415 63.8627 23.3523 64.0766 23.0727C64.3069 22.8094 64.4796 22.4557 64.5948 22.0116C64.7264 21.5838 64.7922 21.0327 64.7922 20.3582V8.4887H68.0495V17.5204H70.4925ZM57.3149 6.61335C56.8542 6.61335 56.4676 6.45707 56.1551 6.14449C55.8425 5.81547 55.6862 5.41242 55.6862 4.93533C55.6862 4.4747 55.8425 4.07987 56.1551 3.75085C56.4676 3.42182 56.8542 3.25731 57.3149 3.25731C57.7755 3.25731 58.1621 3.42182 58.4747 3.75085C58.7873 4.06342 58.9435 4.45825 58.9435 4.93533C58.9435 5.39596 58.7873 5.79079 58.4747 6.11982C58.1621 6.44884 57.7755 6.61335 57.3149 6.61335ZM53.2185 6.61335C52.7579 6.61335 52.3713 6.45707 52.0587 6.14449C51.7462 5.81547 51.5899 5.41242 51.5899 4.93533C51.5899 4.4747 51.7462 4.07987 52.0587 3.75085C52.3713 3.42182 52.7579 3.25731 53.2185 3.25731C53.6956 3.25731 54.0904 3.42182 54.403 3.75085C54.7156 4.06342 54.8719 4.45825 54.8719 4.93533C54.8719 5.39596 54.7156 5.79079 54.403 6.11982C54.0904 6.44884 53.6956 6.61335 53.2185 6.61335ZM47.765 17.5205H49.1716C49.3854 17.5205 49.5746 17.5287 49.7391 17.5451C49.9036 17.5616 50.0517 17.5863 50.1833 17.6192L50.5534 17.6932C50.0928 17.3642 49.7473 16.92 49.517 16.3607C49.2867 15.7849 49.1716 15.0528 49.1716 14.1644C49.1716 13.3748 49.3032 12.6262 49.5664 11.9188C49.8296 11.195 50.2244 10.5534 50.7509 9.99406C51.2938 9.43472 51.9682 8.99054 52.7744 8.66152C53.5805 8.3325 54.5182 8.16798 55.5875 8.16798C57.5123 8.16798 58.9189 8.6862 59.8072 9.72262C60.712 10.7426 61.1644 12.1163 61.1644 13.8436V20.0869L48.1509 20.0869H40.427C38.9629 20.0869 37.8442 19.9223 37.071 19.5933C36.2978 19.2643 35.722 18.7954 35.3436 18.1867C35.0311 18.8283 34.5951 19.3054 34.0358 19.618C33.4764 19.9306 32.8266 20.0869 32.0863 20.0869H31.7161V20.0868H22.0253V20.0869H19.3498H19.0887H16.6751H16.4133H13.7386V20.0869H6.61337C5.41243 20.0869 4.39246 19.9552 3.55345 19.692C2.71444 19.4124 2.03172 19.0258 1.50528 18.5322C0.978844 18.0387 0.592242 17.4382 0.345474 16.7308C0.115158 16.0234 0 15.2338 0 14.3618C0 13.5557 0.123384 12.7825 0.370151 12.0422C0.63337 11.2855 1.0282 10.6274 1.55463 10.0681C2.09752 9.4923 2.78025 9.03167 3.6028 8.6862C4.42536 8.34072 5.40421 8.16798 6.53934 8.16798C7.27964 8.16798 7.95414 8.21734 8.56283 8.31604C9.18797 8.3983 9.73909 8.49701 10.2162 8.61217C10.7591 8.74378 11.2526 8.88361 11.6968 9.03167V17.5205H14.1151V17.5205H16.4133H16.6751H19.0887H19.3498H21.7634V17.5204H26.4026V8.4887H29.66V17.5204H32.103V17.5205H32.2097C32.8019 17.5205 33.2543 17.3066 33.5669 16.8789C33.8959 16.4512 34.0604 15.6779 34.0604 14.5593C34.0604 13.6709 34.192 12.8401 34.4553 12.0669C34.7185 11.2937 35.1133 10.6192 35.6397 10.0434C36.1826 9.46763 36.8407 9.01523 37.6139 8.6862C38.4035 8.34073 39.3166 8.16799 40.353 8.16799C41.3401 8.16799 42.1955 8.30783 42.9194 8.58749C43.6432 8.85071 44.2355 9.23732 44.6961 9.7473C45.1567 10.2573 45.494 10.8742 45.7079 11.5981C45.9382 12.3219 46.0533 13.1362 46.0533 14.0411V17.5205L47.765 17.5205ZM57.9811 14.2385C57.9811 13.0046 57.7508 12.1163 57.2902 11.5734C56.8296 11.014 56.1797 10.7344 55.3407 10.7344C54.403 10.7344 53.6792 11.0469 53.1692 11.6721C52.6592 12.2972 52.4042 13.0951 52.4042 14.0657C52.4042 15.2338 52.7003 16.1057 53.2926 16.6815C53.8848 17.2408 54.8225 17.5205 56.1057 17.5205H57.9811V14.2385ZM42.1791 11.5981C42.6397 12.1738 42.87 13.1116 42.87 14.4112V17.5205H40.7478C39.4646 17.5205 38.5598 17.249 38.0334 16.7061C37.5234 16.1633 37.2684 15.3489 37.2684 14.2631C37.2684 13.2103 37.5152 12.363 38.0087 11.7214C38.5187 11.0634 39.2261 10.7344 40.1309 10.7344C41.0357 10.7344 41.7185 11.0223 42.1791 11.5981ZM25.5143 23.7883C25.5143 24.2489 25.358 24.6437 25.0454 24.9728C24.7328 25.3018 24.338 25.4663 23.8609 25.4663C23.4003 25.4663 23.0137 25.3018 22.7011 24.9728C22.3886 24.6602 22.2323 24.2654 22.2323 23.7883C22.2323 23.3276 22.3886 22.9328 22.7011 22.6038C23.0137 22.2748 23.4003 22.1103 23.8609 22.1103C24.338 22.1103 24.7328 22.2665 25.0454 22.5791C25.358 22.9081 25.5143 23.3112 25.5143 23.7883ZM29.5859 23.7883C29.5859 24.2489 29.4297 24.6437 29.1171 24.9728C28.8045 25.3018 28.4179 25.4663 27.9573 25.4663C27.4966 25.4663 27.11 25.3018 26.7975 24.9728C26.4849 24.6602 26.3286 24.2654 26.3286 23.7883C26.3286 23.3276 26.4849 22.9328 26.7975 22.6038C27.11 22.2748 27.4966 22.1103 27.9573 22.1103C28.4179 22.1103 28.8045 22.2665 29.1171 22.5791C29.4297 22.9081 29.5859 23.3112 29.5859 23.7883ZM8.53815 11.1785C8.35719 11.0963 8.14332 11.0223 7.89656 10.9565C7.68269 10.9071 7.4277 10.8577 7.13158 10.8084C6.85191 10.759 6.53934 10.7344 6.19386 10.7344C5.25615 10.7344 4.53229 11.0469 4.02231 11.6721C3.51232 12.2972 3.25733 13.0951 3.25733 14.0657C3.25733 15.2009 3.54522 16.0645 4.12102 16.6568C4.71326 17.2326 5.6592 17.5205 6.95884 17.5205H8.53815V11.1785ZM8.26671 6.61335C7.80608 6.61335 7.41947 6.45707 7.1069 6.14449C6.79433 5.81547 6.63804 5.41242 6.63804 4.93533C6.63804 4.4747 6.79433 4.07987 7.1069 3.75085C7.41947 3.42182 7.80608 3.25731 8.26671 3.25731C8.72734 3.25731 9.11394 3.42182 9.42651 3.75085C9.73909 4.06342 9.89537 4.45825 9.89537 4.93533C9.89537 5.39596 9.73909 5.79079 9.42651 6.11982C9.11394 6.44884 8.72734 6.61335 8.26671 6.61335ZM4.17037 6.61335C3.70974 6.61335 3.32313 6.45707 3.01056 6.14449C2.69799 5.81547 2.5417 5.41242 2.5417 4.93533C2.5417 4.4747 2.69799 4.07987 3.01056 3.75085C3.32313 3.42182 3.70974 3.25731 4.17037 3.25731C4.64745 3.25731 5.04228 3.42182 5.35485 3.75085C5.66742 4.06342 5.82371 4.45825 5.82371 4.93533C5.82371 5.39596 5.66742 5.79079 5.35485 6.11982C5.04228 6.44884 4.64745 6.61335 4.17037 6.61335ZM256.89 30.0168C256.643 29.9346 256.38 29.877 256.1 29.8441C255.837 29.8112 255.59 29.7947 255.36 29.7947C254.669 29.7947 254.159 29.9839 253.83 30.3623C253.518 30.7242 253.361 31.3165 253.361 32.139V33.1755H256.224V35.6185H253.361V45.4398H250.227V35.6185H248.08V33.1755H250.227V32.1637C250.227 30.5021 250.614 29.2683 251.387 28.4622C252.177 27.6396 253.419 27.2284 255.113 27.2284C255.442 27.2284 255.771 27.2448 256.1 27.2777C256.446 27.2942 256.783 27.3435 257.112 27.4258L256.89 30.0168ZM261.271 30.8065C261.666 30.4281 261.863 29.9757 261.863 29.4493C261.863 28.9064 261.666 28.454 261.271 28.092C260.893 27.7137 260.432 27.5245 259.889 27.5245C259.346 27.5245 258.886 27.7137 258.507 28.092C258.129 28.4704 257.94 28.9228 257.94 29.4493C257.94 29.9757 258.129 30.4281 258.507 30.8065C258.886 31.1684 259.346 31.3494 259.889 31.3494C260.432 31.3494 260.893 31.1684 261.271 30.8065ZM258.31 33.1754V45.4398H261.468V33.1754H258.31ZM300.214 30.8065C300.609 30.4281 300.806 29.9757 300.806 29.4493C300.806 28.9064 300.609 28.454 300.214 28.092C299.836 27.7137 299.375 27.5245 298.832 27.5245C298.289 27.5245 297.829 27.7137 297.45 28.092C297.072 28.4704 296.883 28.9228 296.883 29.4493C296.883 29.9757 297.072 30.4281 297.45 30.8065C297.829 31.1684 298.289 31.3494 298.832 31.3494C299.375 31.3494 299.836 31.1684 300.214 30.8065ZM297.253 33.1754V45.4398H300.411V33.1754H297.253ZM314.937 39.0731C314.937 40.0437 314.781 40.9321 314.468 41.7382C314.155 42.5443 313.719 43.2435 313.16 43.8357C312.617 44.4115 311.959 44.8639 311.186 45.193C310.413 45.522 309.574 45.6865 308.669 45.6865C307.797 45.6865 307.007 45.5713 306.3 45.341C305.593 45.1107 304.984 44.7488 304.474 44.2552C303.98 43.7453 303.594 43.1037 303.314 42.3305C303.051 41.5408 302.919 40.6031 302.919 39.5173C302.919 38.5631 303.067 37.683 303.363 36.8769C303.676 36.0708 304.104 35.3798 304.647 34.804C305.206 34.2118 305.864 33.7512 306.621 33.4221C307.394 33.0931 308.249 32.9286 309.187 32.9286C310.059 32.9286 310.849 33.052 311.556 33.2988C312.264 33.5455 312.864 33.9239 313.358 34.4339C313.868 34.9274 314.254 35.5608 314.517 36.334C314.797 37.1072 314.937 38.0202 314.937 39.0731ZM311.68 39.2459C311.68 38.0614 311.457 37.1566 311.013 36.5314C310.586 35.9063 309.903 35.5937 308.965 35.5937C308.62 35.5937 308.274 35.6677 307.929 35.8158C307.6 35.9474 307.304 36.1613 307.04 36.4574C306.777 36.7535 306.563 37.1319 306.399 37.5925C306.251 38.0367 306.177 38.5714 306.177 39.1965C306.177 41.73 307.09 42.9967 308.916 42.9967C309.705 42.9967 310.363 42.6842 310.89 42.059C311.416 41.4339 311.68 40.4961 311.68 39.2459ZM324.973 45.4397V37.5925C324.973 36.9674 324.866 36.4738 324.653 36.1119C324.439 35.75 324.036 35.569 323.443 35.569C323.049 35.569 322.678 35.676 322.333 35.8898C321.988 36.1037 321.683 36.3916 321.42 36.7535C321.173 37.099 320.976 37.5103 320.828 37.9873C320.68 38.4644 320.606 38.9744 320.606 39.5173V45.4397H317.447V33.1754H320.433C320.433 33.4551 320.416 33.8088 320.384 34.2365C320.367 34.6642 320.326 35.0426 320.26 35.3716H320.285C320.663 34.6478 321.198 34.0637 321.889 33.6196C322.596 33.1589 323.452 32.9286 324.455 32.9286C325.146 32.9286 325.722 33.0355 326.183 33.2494C326.66 33.4468 327.038 33.7265 327.318 34.0884C327.597 34.4339 327.795 34.8452 327.91 35.3223C328.042 35.7829 328.107 36.2846 328.107 36.8275V45.4397H324.973ZM294.785 45.3411C294.39 45.4398 293.954 45.5221 293.477 45.5879C293 45.6537 292.548 45.6866 292.12 45.6866C291.445 45.6866 290.878 45.6208 290.417 45.4892C289.957 45.3576 289.586 45.1437 289.307 44.8476C289.044 44.535 288.854 44.1402 288.739 43.6631C288.624 43.1695 288.566 42.5609 288.566 41.837V35.6185H286.444V33.1755H288.566V29.3999L291.7 28.5609V33.1755H294.686V35.6185H291.7V40.998C291.7 41.7877 291.807 42.3223 292.021 42.602C292.235 42.8817 292.613 43.0215 293.156 43.0215C293.699 43.0215 294.168 42.9639 294.563 42.8488L294.785 45.3411ZM281.936 44.3787C281.92 44.7242 281.911 45.0779 281.911 45.4398H284.922C284.889 44.9298 284.864 44.4034 284.848 43.8605C284.831 43.3011 284.823 42.7747 284.823 42.2812V37.2224C284.823 36.5315 284.741 35.9228 284.576 35.3964C284.428 34.8535 284.165 34.4011 283.787 34.0391C283.408 33.6608 282.898 33.3811 282.257 33.2001C281.632 33.0027 280.842 32.904 279.888 32.904C279.049 32.904 278.218 32.9863 277.395 33.1508C276.589 33.2988 275.874 33.4962 275.249 33.743L275.767 36.1613C276.31 35.931 276.918 35.7336 277.593 35.5691C278.284 35.4046 278.909 35.3223 279.468 35.3223C280.291 35.3223 280.858 35.4951 281.171 35.8405C281.5 36.186 281.665 36.7289 281.665 37.4692V37.9134C280.595 37.9134 279.625 38.0039 278.753 38.1848C277.881 38.3493 277.132 38.6126 276.507 38.9745C275.898 39.32 275.421 39.7641 275.076 40.307C274.747 40.8335 274.582 41.4586 274.582 42.1825C274.582 43.186 274.887 44.025 275.495 44.6995C276.104 45.3575 276.968 45.6866 278.086 45.6866C279.008 45.6866 279.814 45.4727 280.505 45.045C281.212 44.6008 281.714 44.0332 282.01 43.3423L282.035 43.3669C281.985 43.696 281.952 44.0332 281.936 44.3787ZM279.69 40.1343C280.217 40.0356 280.875 39.9862 281.665 39.9862V40.307C281.665 40.6854 281.599 41.0556 281.467 41.4175C281.352 41.763 281.179 42.0755 280.949 42.3552C280.735 42.6184 280.464 42.8405 280.135 43.0215C279.822 43.186 279.477 43.2682 279.098 43.2682C278.638 43.2682 278.276 43.1284 278.012 42.8487C277.749 42.5691 277.618 42.2318 277.618 41.837C277.618 41.5738 277.675 41.327 277.79 41.0967C277.922 40.8664 278.136 40.669 278.432 40.5044C278.744 40.3399 279.164 40.2165 279.69 40.1343ZM272.983 45.0944C272.506 45.2753 271.955 45.4152 271.33 45.5139C270.721 45.6126 270.121 45.6619 269.528 45.6619C268.673 45.6619 267.9 45.5468 267.209 45.3165C266.534 45.0862 265.958 44.7325 265.481 44.2554C265.004 43.7783 264.634 43.1614 264.371 42.4046C264.124 41.6479 264.001 40.7513 264.001 39.7149C264.001 38.7607 264.124 37.8723 264.371 37.0498C264.634 36.2272 265.021 35.5116 265.531 34.9029C266.041 34.2942 266.682 33.8171 267.456 33.4716C268.245 33.1262 269.175 32.9534 270.244 32.9534C270.721 32.9534 271.19 32.9946 271.651 33.0768C272.111 33.1426 272.539 33.2413 272.934 33.3729L272.44 36.0874C272.111 35.9558 271.749 35.8488 271.354 35.7666C270.96 35.6679 270.557 35.6185 270.145 35.6185C269.208 35.6185 268.5 35.964 268.023 36.6549C267.546 37.3459 267.307 38.2589 267.307 39.3941C267.307 39.9205 267.357 40.4058 267.456 40.85C267.554 41.2777 267.719 41.6479 267.949 41.9604C268.179 42.273 268.475 42.5198 268.837 42.7007C269.199 42.8652 269.644 42.9475 270.17 42.9475C271.025 42.9475 271.823 42.783 272.564 42.454L272.983 45.0944ZM245.993 30.8065C246.387 30.4281 246.585 29.9757 246.585 29.4493C246.585 28.9064 246.387 28.454 245.993 28.092C245.614 27.7137 245.154 27.5245 244.611 27.5245C244.068 27.5245 243.607 27.7137 243.229 28.092C242.85 28.4704 242.661 28.9228 242.661 29.4493C242.661 29.9757 242.85 30.4281 243.229 30.8065C243.607 31.1684 244.068 31.3494 244.611 31.3494C245.154 31.3494 245.614 31.1684 245.993 30.8065ZM243.031 33.1754V45.4398H246.19V33.1754H243.031ZM240.564 45.3411C240.169 45.4398 239.733 45.5221 239.256 45.5879C238.779 45.6537 238.326 45.6866 237.898 45.6866C237.224 45.6866 236.656 45.6208 236.196 45.4892C235.735 45.3576 235.365 45.1437 235.085 44.8476C234.822 44.535 234.633 44.1402 234.518 43.6631C234.403 43.1695 234.345 42.5609 234.345 41.837V35.6185H232.223V33.1755H234.345V29.3999L237.479 28.5609V33.1755H240.465V35.6185H237.479V40.998C237.479 41.7877 237.586 42.3223 237.8 42.602C238.014 42.8817 238.392 43.0215 238.935 43.0215C239.478 43.0215 239.947 42.9639 240.341 42.8488L240.564 45.3411ZM227.754 40.4305C227.754 37.0416 228.889 35.5692 231.16 36.0134L231.308 32.9288C230.781 32.8794 230.304 32.9205 229.877 33.0522C229.465 33.1838 229.095 33.3812 228.766 33.6444C228.454 33.8912 228.182 34.1873 227.952 34.5328C227.738 34.8782 227.557 35.2484 227.409 35.6432H227.36C227.442 35.2155 227.499 34.7795 227.532 34.3353C227.565 33.8747 227.582 33.4881 227.582 33.1755H224.596V45.4399H227.754V40.4305ZM221.964 38.1354C221.964 38.3657 221.955 38.6536 221.939 38.9991C221.922 39.3281 221.89 39.6325 221.84 39.9121H214.264C214.264 40.9979 214.528 41.8205 215.054 42.3798C215.597 42.9391 216.461 43.2188 217.645 43.2188C218.83 43.2188 220.014 42.9803 221.199 42.5032L221.544 44.8968C220.87 45.1436 220.146 45.3328 219.373 45.4644C218.616 45.6125 217.859 45.6865 217.102 45.6865C215.161 45.6865 213.664 45.1847 212.611 44.1812C211.575 43.1777 211.056 41.5901 211.056 39.4186C211.056 38.4973 211.188 37.6419 211.451 36.8522C211.715 36.0626 212.093 35.3798 212.586 34.804C213.096 34.2118 213.705 33.7512 214.413 33.4221C215.136 33.0931 215.959 32.9286 216.88 32.9286C217.769 32.9286 218.534 33.0684 219.175 33.3481C219.817 33.6113 220.343 33.9815 220.754 34.4586C221.166 34.9192 221.47 35.4703 221.667 36.1119C221.865 36.7371 221.964 37.4116 221.964 38.1354ZM218.83 37.8146C218.863 36.9756 218.682 36.3422 218.287 35.9145C217.908 35.4703 217.382 35.2482 216.707 35.2482C216.049 35.2482 215.498 35.4785 215.054 35.9392C214.626 36.3834 214.371 37.0085 214.289 37.8146H218.83ZM207.631 45.4398C208.371 45.2917 209.054 45.1026 209.679 44.8722L209.185 42.0344C208.758 42.2483 208.248 42.421 207.656 42.5526C207.08 42.6678 206.537 42.7254 206.027 42.7254C204.332 42.7254 203.099 42.2401 202.325 41.2694C201.552 40.2988 201.166 38.9087 201.166 37.0991C201.166 36.293 201.256 35.5444 201.437 34.8535C201.634 34.1625 201.922 33.5703 202.301 33.0768C202.695 32.5832 203.181 32.1966 203.757 31.917C204.349 31.6373 205.04 31.4974 205.829 31.4974C206.981 31.4974 208.067 31.6949 209.087 32.0897L209.531 29.1285C208.988 28.964 208.404 28.8406 207.779 28.7583C207.17 28.6761 206.57 28.6349 205.977 28.6349C204.579 28.6349 203.354 28.857 202.301 29.3012C201.264 29.7454 200.401 30.3705 199.71 31.1767C199.019 31.9663 198.5 32.9123 198.155 34.0145C197.809 35.1167 197.637 36.3259 197.637 37.642C197.637 38.6784 197.76 39.6819 198.007 40.6525C198.27 41.6067 198.698 42.4539 199.29 43.1942C199.899 43.9345 200.688 44.5268 201.659 44.971C202.646 45.4151 203.872 45.6372 205.336 45.6372C206.126 45.6372 206.891 45.5714 207.631 45.4398ZM186.02 45.4399C186.02 45.1437 186.028 44.8147 186.044 44.4528C186.077 44.0744 186.118 43.7207 186.168 43.3917H186.118C185.789 44.0826 185.296 44.642 184.638 45.0697C183.98 45.4974 183.182 45.7113 182.244 45.7113C180.747 45.7113 179.628 45.1931 178.888 44.1567C178.148 43.1202 177.778 41.7219 177.778 39.9616C177.778 38.9252 177.926 37.9793 178.222 37.1238C178.518 36.2683 178.937 35.5363 179.48 34.9276C180.04 34.3024 180.722 33.8171 181.529 33.4716C182.335 33.1262 183.248 32.9534 184.268 32.9534C184.531 32.9534 184.786 32.9617 185.033 32.9781C185.279 32.9946 185.543 33.0192 185.822 33.0521V27.4258H188.956V45.4399H186.02ZM185.822 35.6432C185.543 35.5774 185.263 35.528 184.983 35.4951C184.72 35.4622 184.449 35.4458 184.169 35.4458C183.264 35.4458 182.524 35.7666 181.948 36.4082C181.372 37.0333 181.084 38.1026 181.084 39.6161C181.084 41.9358 181.784 43.0956 183.182 43.0956C183.593 43.0956 183.963 42.9886 184.292 42.7748C184.621 42.5444 184.893 42.2483 185.107 41.8864C185.337 41.508 185.51 41.0803 185.625 40.6032C185.756 40.1097 185.822 39.5997 185.822 39.0733V35.6432ZM175.959 38.9991C175.976 38.6536 175.984 38.3657 175.984 38.1354C175.984 37.4116 175.885 36.7371 175.688 36.1119C175.491 35.4703 175.186 34.9192 174.775 34.4586C174.364 33.9815 173.837 33.6113 173.196 33.3481C172.554 33.0684 171.789 32.9286 170.901 32.9286C169.979 32.9286 169.157 33.0931 168.433 33.4221C167.726 33.7512 167.117 34.2118 166.607 34.804C166.113 35.3798 165.735 36.0626 165.472 36.8522C165.209 37.6419 165.077 38.4973 165.077 39.4186C165.077 41.5901 165.595 43.1777 166.632 44.1812C167.685 45.1847 169.182 45.6865 171.123 45.6865C171.88 45.6865 172.636 45.6125 173.393 45.4644C174.166 45.3328 174.89 45.1436 175.565 44.8968L175.219 42.5032C174.035 42.9803 172.85 43.2188 171.666 43.2188C170.481 43.2188 169.618 42.9391 169.075 42.3798C168.548 41.8205 168.285 40.9979 168.285 39.9121H175.861C175.91 39.6325 175.943 39.3281 175.959 38.9991ZM172.307 35.9145C172.702 36.3422 172.883 36.9756 172.85 37.8146H168.31C168.392 37.0085 168.647 36.3834 169.075 35.9392C169.519 35.4785 170.07 35.2482 170.728 35.2482C171.403 35.2482 171.929 35.4703 172.307 35.9145ZM163.473 45.3411C163.078 45.4398 162.642 45.5221 162.165 45.5879C161.688 45.6537 161.236 45.6866 160.808 45.6866C160.134 45.6866 159.566 45.6208 159.105 45.4892C158.645 45.3576 158.275 45.1437 157.995 44.8476C157.732 44.535 157.543 44.1402 157.427 43.6631C157.312 43.1695 157.255 42.5609 157.255 41.837V35.6185H155.132V33.1755H157.255V29.3999L160.389 28.5609V33.1755H163.374V35.6185H160.389V40.998C160.389 41.7877 160.496 42.3223 160.709 42.602C160.923 42.8817 161.302 43.0215 161.845 43.0215C162.387 43.0215 162.856 42.9639 163.251 42.8488L163.473 45.3411ZM153.093 30.8065C153.488 30.4281 153.686 29.9757 153.686 29.4493C153.686 28.9064 153.488 28.454 153.093 28.092C152.715 27.7137 152.254 27.5245 151.711 27.5245C151.169 27.5245 150.708 27.7137 150.33 28.092C149.951 28.4704 149.762 28.9228 149.762 29.4493C149.762 29.9757 149.951 30.4281 150.33 30.8065C150.708 31.1684 151.169 31.3494 151.711 31.3494C152.254 31.3494 152.715 31.1684 153.093 30.8065ZM150.132 33.1754V45.4398H153.291V33.1754H150.132ZM143.776 45.4399C143.776 45.1437 143.784 44.8147 143.8 44.4528C143.833 44.0744 143.874 43.7207 143.924 43.3917H143.874C143.545 44.0826 143.052 44.642 142.394 45.0697C141.736 45.4974 140.938 45.7113 140 45.7113C138.503 45.7113 137.384 45.1931 136.644 44.1567C135.904 43.1202 135.534 41.7219 135.534 39.9616C135.534 38.9252 135.682 37.9793 135.978 37.1238C136.274 36.2683 136.693 35.5363 137.236 34.9276C137.796 34.3024 138.478 33.8171 139.285 33.4716C140.091 33.1262 141.004 32.9534 142.024 32.9534C142.287 32.9534 142.542 32.9617 142.789 32.9781C143.035 32.9946 143.299 33.0192 143.578 33.0521V27.4258H146.712V45.4399H143.776ZM143.578 35.6432C143.299 35.5774 143.019 35.528 142.739 35.4951C142.476 35.4622 142.205 35.4458 141.925 35.4458C141.02 35.4458 140.28 35.7666 139.704 36.4082C139.128 37.0333 138.84 38.1026 138.84 39.6161C138.84 41.9358 139.54 43.0956 140.938 43.0956C141.349 43.0956 141.719 42.9886 142.048 42.7748C142.377 42.5444 142.649 42.2483 142.863 41.8864C143.093 41.508 143.266 41.0803 143.381 40.6032C143.512 40.1097 143.578 39.5997 143.578 39.0733V35.6432ZM133.715 38.9991C133.731 38.6536 133.739 38.3657 133.739 38.1354C133.739 37.4116 133.641 36.7371 133.443 36.1119C133.246 35.4703 132.941 34.9192 132.53 34.4586C132.119 33.9815 131.592 33.6113 130.951 33.3481C130.309 33.0684 129.544 32.9286 128.656 32.9286C127.735 32.9286 126.912 33.0931 126.188 33.4221C125.481 33.7512 124.872 34.2118 124.362 34.804C123.869 35.3798 123.49 36.0626 123.227 36.8522C122.964 37.6419 122.832 38.4973 122.832 39.4186C122.832 41.5901 123.35 43.1777 124.387 44.1812C125.44 45.1847 126.937 45.6865 128.878 45.6865C129.635 45.6865 130.392 45.6125 131.148 45.4644C131.921 45.3328 132.645 45.1436 133.32 44.8968L132.974 42.5032C131.79 42.9803 130.605 43.2188 129.421 43.2188C128.236 43.2188 127.373 42.9391 126.83 42.3798C126.303 41.8205 126.04 40.9979 126.04 39.9121H133.616C133.665 39.6325 133.698 39.3281 133.715 38.9991ZM130.063 35.9145C130.457 36.3422 130.638 36.9756 130.605 37.8146H126.065C126.147 37.0085 126.402 36.3834 126.83 35.9392C127.274 35.4785 127.825 35.2482 128.483 35.2482C129.158 35.2482 129.684 35.4703 130.063 35.9145ZM121.802 36.0134C119.531 35.5692 118.396 37.0416 118.396 40.4305V45.4399H115.238V33.1755H118.224C118.224 33.4881 118.207 33.8747 118.174 34.3353C118.141 34.7795 118.084 35.2155 118.002 35.6432H118.051C118.199 35.2484 118.38 34.8782 118.594 34.5328C118.824 34.1873 119.096 33.8912 119.408 33.6444C119.737 33.3812 120.107 33.1838 120.519 33.0522C120.946 32.9205 121.423 32.8794 121.95 32.9288L121.802 36.0134ZM111.22 45.5139C111.845 45.4152 112.396 45.2753 112.873 45.0944L112.454 42.454C111.713 42.783 110.915 42.9475 110.06 42.9475C109.533 42.9475 109.089 42.8652 108.727 42.7007C108.365 42.5198 108.069 42.273 107.839 41.9604C107.609 41.6479 107.444 41.2777 107.345 40.85C107.247 40.4058 107.197 39.9205 107.197 39.3941C107.197 38.2589 107.436 37.3459 107.913 36.6549C108.39 35.964 109.098 35.6185 110.035 35.6185C110.447 35.6185 110.85 35.6679 111.244 35.7666C111.639 35.8488 112.001 35.9558 112.33 36.0874L112.824 33.3729C112.429 33.2413 112.001 33.1426 111.541 33.0768C111.08 32.9946 110.611 32.9534 110.134 32.9534C109.065 32.9534 108.135 33.1262 107.345 33.4716C106.572 33.8171 105.931 34.2942 105.421 34.9029C104.911 35.5116 104.524 36.2272 104.261 37.0498C104.014 37.8723 103.891 38.7607 103.891 39.7149C103.891 40.7513 104.014 41.6479 104.261 42.4046C104.524 43.1614 104.894 43.7783 105.371 44.2554C105.848 44.7325 106.424 45.0862 107.099 45.3165C107.79 45.5468 108.563 45.6619 109.418 45.6619C110.011 45.6619 110.611 45.6126 111.22 45.5139ZM102.608 45.0944C102.131 45.2753 101.58 45.4152 100.955 45.5139C100.346 45.6126 99.7455 45.6619 99.1532 45.6619C98.2978 45.6619 97.5246 45.5468 96.8336 45.3165C96.1591 45.0862 95.5833 44.7325 95.1062 44.2554C94.6292 43.7783 94.259 43.1614 93.9958 42.4046C93.749 41.6479 93.6256 40.7513 93.6256 39.7149C93.6256 38.7607 93.749 37.8723 93.9958 37.0498C94.259 36.2272 94.6456 35.5116 95.1556 34.9029C95.6656 34.2942 96.3072 33.8171 97.0804 33.4716C97.87 33.1262 98.7995 32.9534 99.8689 32.9534C100.346 32.9534 100.815 32.9946 101.275 33.0768C101.736 33.1426 102.164 33.2413 102.559 33.3729L102.065 36.0874C101.736 35.9558 101.374 35.8488 100.979 35.7666C100.584 35.6679 100.181 35.6185 99.7701 35.6185C98.8324 35.6185 98.125 35.964 97.6479 36.6549C97.1709 37.3459 96.9323 38.2589 96.9323 39.3941C96.9323 39.9205 96.9817 40.4058 97.0804 40.85C97.1791 41.2777 97.3436 41.6479 97.5739 41.9604C97.8042 42.273 98.1003 42.5198 98.4623 42.7007C98.8242 42.8652 99.2684 42.9475 99.7948 42.9475C100.65 42.9475 101.448 42.783 102.188 42.454L102.608 45.0944ZM88.0734 42.0344L89.2085 45.4398H92.7619L86.8889 28.783H83.1133L77.3637 45.4398H80.5963L81.7561 42.0344H88.0734ZM85.1862 33.3729C85.3014 33.7348 85.4247 34.1214 85.5564 34.5327L87.259 39.4927H82.5211L84.2238 34.5327C84.3554 34.1214 84.4706 33.7348 84.5693 33.3729L84.8654 32.2377H84.8901C84.9723 32.6161 85.071 32.9945 85.1862 33.3729ZM66.4624 45.4399V27.4258H69.6211V45.4399H66.4624ZM60.1101 44.3787C60.0936 44.7242 60.0854 45.0779 60.0854 45.4398H63.0959C63.063 44.9298 63.0384 44.4034 63.0219 43.8605C63.0055 43.3011 62.9972 42.7747 62.9972 42.2812V37.2224C62.9972 36.5315 62.915 35.9228 62.7505 35.3964C62.6024 34.8535 62.3392 34.4011 61.9608 34.0391C61.5824 33.6608 61.0725 33.3811 60.4309 33.2001C59.8057 33.0027 59.0161 32.904 58.0619 32.904C57.2229 32.904 56.3921 32.9863 55.5695 33.1508C54.7634 33.2988 54.0478 33.4962 53.4227 33.743L53.9409 36.1613C54.4838 35.931 55.0925 35.7336 55.767 35.5691C56.4579 35.4046 57.083 35.3223 57.6424 35.3223C58.4649 35.3223 59.0325 35.4951 59.3451 35.8405C59.6741 36.186 59.8386 36.7289 59.8386 37.4692V37.9134C58.7693 37.9134 57.7987 38.0039 56.9268 38.1848C56.0549 38.3493 55.3063 38.6126 54.6812 38.9745C54.0725 39.32 53.5954 39.7641 53.2499 40.307C52.9209 40.8335 52.7564 41.4586 52.7564 42.1825C52.7564 43.186 53.0607 44.025 53.6694 44.6995C54.2781 45.3575 55.1418 45.6866 56.2605 45.6866C57.1818 45.6866 57.9879 45.4727 58.6788 45.045C59.3862 44.6008 59.888 44.0332 60.1841 43.3423L60.2088 43.3669C60.1594 43.696 60.1265 44.0332 60.1101 44.3787ZM57.8645 40.1343C58.3909 40.0356 59.049 39.9862 59.8386 39.9862V40.307C59.8386 40.6854 59.7728 41.0556 59.6412 41.4175C59.526 41.763 59.3533 42.0755 59.123 42.3552C58.9091 42.6184 58.6377 42.8405 58.3087 43.0215C57.9961 43.186 57.6506 43.2682 57.2722 43.2682C56.8116 43.2682 56.4497 43.1284 56.1865 42.8487C55.9232 42.5691 55.7916 42.2318 55.7916 41.837C55.7916 41.5738 55.8492 41.327 55.9644 41.0967C56.096 40.8664 56.3098 40.669 56.606 40.5044C56.9185 40.3399 57.338 40.2165 57.8645 40.1343ZM51.0541 45.3411C50.6593 45.4398 50.2233 45.5221 49.7462 45.5879C49.2691 45.6537 48.8167 45.6866 48.389 45.6866C47.7145 45.6866 47.1469 45.6208 46.6863 45.4892C46.2257 45.3576 45.8555 45.1437 45.5759 44.8476C45.3126 44.535 45.1235 44.1402 45.0083 43.6631C44.8931 43.1695 44.8356 42.5609 44.8356 41.837V35.6185H42.7134V33.1755H44.8356V29.3999L47.9695 28.5609V33.1755H50.9554V35.6185H47.9695V40.998C47.9695 41.7877 48.0764 42.3223 48.2903 42.602C48.5042 42.8817 48.8825 43.0215 49.4254 43.0215C49.9683 43.0215 50.4372 42.9639 50.832 42.8488L51.0541 45.3411ZM40.6742 30.8065C41.0691 30.4281 41.2665 29.9757 41.2665 29.4493C41.2665 28.9064 41.0691 28.454 40.6742 28.092C40.2959 27.7137 39.8352 27.5245 39.2923 27.5245C38.7494 27.5245 38.2888 27.7137 37.9104 28.092C37.5321 28.4704 37.3429 28.9228 37.3429 29.4493C37.3429 29.9757 37.5321 30.4281 37.9104 30.8065C38.2888 31.1684 38.7494 31.3494 39.2923 31.3494C39.8352 31.3494 40.2959 31.1684 40.6742 30.8065ZM37.713 33.1754V45.4398H40.8717V33.1754H37.713ZM35.3954 46.7477C35.3954 47.4057 35.2309 48.0308 34.9019 48.6231C34.5893 49.2153 34.1369 49.7335 33.5447 50.1777C32.9689 50.6219 32.2615 50.9756 31.4225 51.2388C30.5999 51.502 29.6787 51.6337 28.6587 51.6337C27.0136 51.6337 25.7222 51.3211 24.7844 50.6959C23.8632 50.0872 23.4025 49.1824 23.4025 47.9815C23.4025 47.3399 23.5917 46.7477 23.9701 46.2048C24.3485 45.6619 24.7927 45.2506 25.3027 44.9709C24.9243 44.79 24.6282 44.5432 24.4143 44.2306C24.2004 43.9016 24.0935 43.5232 24.0935 43.0955C24.0935 42.6184 24.2251 42.1825 24.4883 41.7876C24.768 41.3764 25.1217 41.0802 25.5494 40.8993C24.9736 40.5867 24.5212 40.1507 24.1922 39.5914C23.8796 39.0321 23.7233 38.3493 23.7233 37.5432C23.7233 36.9345 23.8385 36.3505 24.0688 35.7912C24.2991 35.2154 24.6364 34.7219 25.0806 34.3106C25.5412 33.8829 26.1088 33.5456 26.7833 33.2988C27.4578 33.0356 28.2392 32.904 29.1275 32.904C29.5224 32.904 29.8679 32.9287 30.164 32.978C30.4765 33.0274 30.7973 33.0932 31.1264 33.1754H35.2967V35.6431H33.6187C34.03 36.0215 34.2356 36.5397 34.2356 37.1978C34.2356 37.8558 34.1205 38.4563 33.8902 38.9992C33.6763 39.542 33.3473 40.0109 32.9031 40.4057C32.4754 40.7841 31.9325 41.0802 31.2744 41.2941C30.6164 41.508 29.8514 41.6149 28.9795 41.6149C28.6505 41.6149 28.3297 41.582 28.0171 41.5162C27.8197 41.5984 27.6716 41.7136 27.5729 41.8617C27.4742 42.0097 27.4249 42.1578 27.4249 42.3058C27.4249 42.5855 27.5565 42.7747 27.8197 42.8734C28.0993 42.9721 28.6011 43.0379 29.325 43.0708L31.2251 43.1449C32.5576 43.1942 33.5858 43.515 34.3097 44.1072C35.0335 44.683 35.3954 45.5632 35.3954 46.7477ZM31.2251 37.3705C31.2251 36.7124 31.0359 36.186 30.6575 35.7912C30.2956 35.3964 29.7445 35.1989 29.0042 35.1989C28.2803 35.1989 27.721 35.4046 27.3261 35.8159C26.9313 36.2107 26.7339 36.7207 26.7339 37.3458C26.7339 38.0039 26.9231 38.5221 27.3015 38.9005C27.6963 39.2788 28.2639 39.468 29.0042 39.468C29.6951 39.468 30.238 39.2871 30.6328 38.9251C31.0277 38.5468 31.2251 38.0285 31.2251 37.3705ZM32.2615 47.1672C32.2615 46.723 32.1134 46.3528 31.8173 46.0567C31.5212 45.777 31.0277 45.6208 30.3367 45.5878L28.2145 45.5138H27.6469C27.285 45.777 27.0053 46.0649 26.8079 46.3775C26.6105 46.7065 26.5118 47.0438 26.5118 47.3893C26.5118 47.965 26.7504 48.4092 27.2274 48.7218C27.7045 49.0508 28.3379 49.2153 29.1275 49.2153C30.164 49.2153 30.9454 49.0179 31.4718 48.6231C31.9983 48.2283 32.2615 47.743 32.2615 47.1672ZM20.6728 30.8065C21.0676 30.4281 21.265 29.9757 21.265 29.4493C21.265 28.9064 21.0676 28.454 20.6728 28.092C20.2944 27.7137 19.8338 27.5245 19.2909 27.5245C18.748 27.5245 18.2874 27.7137 17.909 28.092C17.5306 28.4704 17.3414 28.9228 17.3414 29.4493C17.3414 29.9757 17.5306 30.4281 17.909 30.8065C18.2874 31.1684 18.748 31.3494 19.2909 31.3494C19.8338 31.3494 20.2944 31.1684 20.6728 30.8065ZM17.7116 33.1754V45.4398H20.8702V33.1754H17.7116ZM15.0961 36.8276C15.0961 38.2588 14.874 39.5174 14.4298 40.6031C13.9857 41.6889 13.3523 42.6019 12.5297 43.3422C11.7236 44.0661 10.753 44.6172 9.61788 44.9956C8.4992 45.3575 7.26536 45.5385 5.91637 45.5385C5.04445 45.5385 4.23012 45.522 3.47337 45.4891C2.71661 45.4727 1.98454 45.448 1.27714 45.4151V28.8076C1.93518 28.7747 2.73307 28.7501 3.67078 28.7336C4.62495 28.7007 5.62024 28.6843 6.65667 28.6843C7.93986 28.6843 9.09966 28.8323 10.1361 29.1284C11.189 29.4246 12.0773 29.9016 12.8012 30.5597C13.5415 31.2177 14.109 32.065 14.5039 33.1014C14.8987 34.1214 15.0961 35.3634 15.0961 36.8276ZM11.6414 37.0744C11.6414 36.186 11.5427 35.3881 11.3452 34.6807C11.1643 33.9733 10.8682 33.3728 10.4569 32.8793C10.0456 32.3858 9.51094 32.0156 8.8529 31.7689C8.19485 31.5056 7.38874 31.374 6.43458 31.374C6.0562 31.374 5.7025 31.3823 5.37348 31.3987C5.04445 31.3987 4.74833 31.4152 4.48511 31.4481V42.676C4.71543 42.7089 4.97865 42.7418 5.27477 42.7747C5.58734 42.7911 5.90814 42.7994 6.23716 42.7994C7.02682 42.7994 7.75067 42.6924 8.40872 42.4786C9.06676 42.2482 9.63433 41.9028 10.1114 41.4421C10.5885 40.9651 10.9586 40.3646 11.2219 39.6407C11.5015 38.9169 11.6414 38.0614 11.6414 37.0744Z" fill="white"/>
</svg>
